<svg xmlns="http://www.w3.org/2000/svg" xmlns:xlink="http://www.w3.org/1999/xlink" viewBox="0 0 603.25 616.01"><defs><style>.cls-1{fill:none;}.cls-2{clip-path:url(#clip-path);}.cls-3{clip-path:url(#clip-path-2);}</style><clipPath id="clip-path" transform="translate(0 0)"><rect class="cls-1" width="603.24" height="616"/></clipPath><clipPath id="clip-path-2" transform="translate(0 0)"><rect class="cls-1" width="603.24" height="616"/></clipPath></defs><g id="Layer_2" data-name="Layer 2"><g id="Layer_1-2" data-name="Layer 1"><g id="Idem_logo_no_text" data-name="Idem logo no text"><g class="cls-2"><g class="cls-3"><path d="M537.15,236.08H407.72a135,135,0,0,1-117-67.53L234,70.19a37.89,37.89,0,0,0-32.82-18.95H0L152.09,314.67a37.9,37.9,0,0,1,0,37.9L0,616H424.19a37.92,37.92,0,0,0,32.83-19L598.17,352.57a37.9,37.9,0,0,0,0-37.9l-37.56-65a27.08,27.08,0,0,0-23.46-13.55" transform="translate(0 0)"/><path d="M441.15,184.84H560a15.14,15.14,0,0,0,13.11-22.71L479.5,0H282.68a15.14,15.14,0,0,0-13.11,22.71l54.62,94.6a135,135,0,0,0,117,67.53" transform="translate(0 0)"/></g></g></g></g></g></svg>