<?xml version="1.0" encoding="UTF-8" standalone="no"?>
<!DOCTYPE svg PUBLIC "-//W3C//DTD SVG 1.1//EN" "http://www.w3.org/Graphics/SVG/1.1/DTD/svg11.dtd">
<svg width="100%" height="100%" viewBox="0 0 400 400" version="1.1" xmlns="http://www.w3.org/2000/svg" xmlns:xlink="http://www.w3.org/1999/xlink" xml:space="preserve" xmlns:serif="http://www.serif.com/" style="fill-rule:evenodd;clip-rule:evenodd;stroke-linejoin:round;stroke-miterlimit:1.41421;">
    <g id="_0b6f0a07-2ae9-4077-ac96-42fdc93a6dd4" serif:id="0b6f0a07-2ae9-4077-ac96-42fdc93a6dd4">
        <g transform="matrix(1.16205,0,0,1.16205,-20.2075,-23.7864)">
            <g transform="matrix(1.1245,0,0,1.1245,48.9195,-284.494)">
                <path d="M69.577,343.862C77.234,343.898 84.784,347.655 89.415,353.886C94.734,361.042 95.833,371.105 91.886,379.356C88.57,386.286 81.886,391.504 74.339,393.001C66.526,394.551 58.04,392.08 52.277,386.519C48.284,382.666 45.642,377.454 44.91,371.976C43.869,364.189 46.762,355.979 52.546,350.562C57.067,346.328 63.162,343.892 69.417,343.862C69.47,343.862 69.524,343.862 69.577,343.862ZM69.448,353.666C65.708,353.684 61.982,355.158 59.248,357.718C54.691,361.987 53.147,369.214 55.933,375.083C58.34,380.154 63.745,383.652 69.448,383.67C76.478,383.692 83.252,378.286 84.34,370.863C84.791,367.785 84.267,364.571 82.839,361.806C80.352,356.988 75.119,353.728 69.643,353.667C69.578,353.667 69.513,353.666 69.448,353.666Z" style="fill:#0065ab;fill-rule:nonzero;"/>
            </g>
            <g transform="matrix(1.1245,0,0,1.1245,111.373,-284.494)">
                <path d="M69.577,343.862C77.18,343.898 84.691,347.61 89.325,353.766C94.733,360.95 95.832,371.105 91.886,379.355C88.566,386.296 81.862,391.533 74.262,393.016C66.483,394.534 58.023,392.064 52.277,386.519C48.314,382.694 45.667,377.512 44.92,372.053C43.862,364.319 46.688,356.145 52.384,350.715C56.906,346.403 63.074,343.892 69.417,343.862C69.47,343.862 69.524,343.862 69.577,343.862ZM69.448,353.666C65.827,353.684 62.249,355.048 59.548,357.444C54.777,361.679 53.065,369.038 55.934,375.084C58.334,380.144 63.745,383.652 69.448,383.67C76.492,383.692 83.261,378.233 84.34,370.864C84.795,367.755 84.255,364.507 82.797,361.725C80.293,356.947 75.119,353.728 69.643,353.667C69.578,353.667 69.513,353.666 69.448,353.666Z" style="fill:#0065ab;fill-rule:nonzero;"/>
            </g>
            <g transform="matrix(1.1245,0,0,1.1245,173.826,-284.494)">
                <path d="M69.577,343.862C77.09,343.898 84.5,347.51 89.145,353.53C94.687,360.712 95.876,371.015 91.886,379.356C88.561,386.306 81.863,391.533 74.262,393.016C66.49,394.532 58.046,392.085 52.277,386.519C48.313,382.695 45.671,377.534 44.92,372.054C43.859,364.304 46.673,356.127 52.438,350.664C56.958,346.379 63.074,343.892 69.417,343.862C69.47,343.862 69.524,343.862 69.577,343.862ZM69.448,353.666C65.681,353.684 61.926,355.18 59.183,357.78C54.649,362.077 53.161,369.289 55.953,375.124C58.37,380.176 63.754,383.652 69.448,383.67C76.484,383.692 83.26,378.231 84.34,370.863C84.792,367.781 84.263,364.563 82.839,361.806C80.347,356.979 75.111,353.728 69.643,353.667C69.578,353.667 69.513,353.666 69.448,353.666Z" style="fill:#60b515;fill-rule:nonzero;"/>
            </g>
            <g transform="matrix(1.1245,0,0,1.1245,48.9195,-221.939)">
                <path d="M69.577,343.862C77.268,343.899 84.809,347.689 89.415,353.886C94.739,361.049 95.833,371.105 91.886,379.356C88.567,386.292 81.886,391.504 74.339,393.001C66.531,394.55 58.043,392.083 52.277,386.519C48.297,382.678 45.645,377.477 44.91,371.976C43.871,364.204 46.733,356.007 52.546,350.562C57.063,346.331 63.181,343.892 69.417,343.862C69.47,343.862 69.524,343.862 69.577,343.862ZM69.448,353.666C64.041,353.692 58.751,356.852 56.197,361.725C53.663,366.56 54.028,372.8 57.262,377.346C60.567,381.992 66.638,384.495 72.339,383.402C79.065,382.112 84.545,375.803 84.499,368.571C84.473,364.534 82.728,360.528 79.778,357.749C77.065,355.193 73.394,353.709 69.643,353.667C69.578,353.667 69.513,353.666 69.448,353.666Z" style="fill:#0065ab;fill-rule:nonzero;"/>
            </g>
            <g transform="matrix(1.1245,0,0,1.1245,111.373,-221.939)">
                <path d="M69.577,343.862C78.626,343.905 87.365,349.201 91.551,357.308C95.038,364.062 95.197,372.431 91.886,379.355C88.551,386.329 81.803,391.57 74.186,393.031C66.413,394.522 58.002,392.043 52.277,386.519C48.303,382.685 45.667,377.512 44.92,372.053C43.862,364.32 46.688,356.146 52.384,350.715C56.908,346.401 63.089,343.892 69.417,343.862C69.47,343.862 69.524,343.862 69.577,343.862ZM69.448,353.666C65.799,353.684 62.161,355.083 59.448,357.535C54.753,361.777 53.091,369.094 55.933,375.084C58.334,380.141 63.735,383.652 69.448,383.67C76.488,383.693 83.261,378.233 84.34,370.864C84.79,367.788 84.268,364.574 82.839,361.805C80.35,356.984 75.119,353.728 69.643,353.667C69.578,353.667 69.513,353.666 69.448,353.666Z" style="fill:#0065ab;fill-rule:nonzero;"/>
            </g>
            <g transform="matrix(1.1245,0,0,1.1245,173.826,-221.939)">
                <path d="M69.577,343.862C77.085,343.898 84.5,347.51 89.145,353.53C94.686,360.711 95.876,371.015 91.886,379.356C88.556,386.315 81.803,391.57 74.186,393.031C66.428,394.519 58.021,392.06 52.277,386.519C48.317,382.698 45.671,377.534 44.92,372.054C43.857,364.295 46.685,356.116 52.438,350.664C56.955,346.383 63.089,343.892 69.417,343.862C69.47,343.862 69.524,343.862 69.577,343.862ZM69.448,353.666C65.754,353.684 62.072,355.12 59.347,357.626C54.703,361.898 53.111,369.183 55.953,375.124C58.362,380.16 63.735,383.652 69.448,383.67C76.483,383.693 83.259,378.231 84.34,370.863C84.792,367.781 84.263,364.563 82.839,361.805C80.349,356.983 75.119,353.728 69.643,353.667C69.578,353.667 69.513,353.666 69.448,353.666Z" style="fill:#0065ab;fill-rule:nonzero;"/>
            </g>
            <g transform="matrix(1.1245,0,0,1.1245,173.826,-159.486)">
                <path d="M69.577,343.862C77.173,343.898 84.702,347.625 89.325,353.766C94.727,360.941 95.849,371.072 91.886,379.356C88.556,386.315 81.803,391.57 74.186,393.031C72.642,393.327 71.069,393.475 69.497,393.475C61.672,393.475 53.96,389.536 49.359,383.15C44.095,375.843 43.196,365.594 47.409,357.374C51.332,349.719 59.342,344.345 68.225,343.894C68.675,343.871 69.125,343.861 69.577,343.862ZM69.448,353.666C65.686,353.684 61.955,355.168 59.215,357.749C54.66,362.04 53.161,369.289 55.953,375.124C58.36,380.155 63.734,383.652 69.448,383.67C73.268,383.682 77.073,382.167 79.844,379.526C82.255,377.227 83.875,374.113 84.346,370.818C84.795,367.68 84.231,364.401 82.733,361.605C80.208,356.891 75.012,353.727 69.643,353.667C69.578,353.667 69.513,353.666 69.448,353.666Z" style="fill:#0065ab;fill-rule:nonzero;"/>
            </g>
            <g transform="matrix(1.1245,0,0,1.1245,111.373,-159.486)">
                <path d="M69.577,343.862C77.098,343.898 84.544,347.529 89.191,353.589C94.71,360.787 95.86,371.046 91.886,379.355C88.554,386.321 81.803,391.57 74.186,393.031C72.642,393.327 71.069,393.475 69.497,393.475C61.672,393.475 53.959,389.536 49.359,383.15C44.115,375.871 43.182,365.744 47.341,357.508C51.24,349.785 59.342,344.345 68.225,343.894C68.675,343.871 69.125,343.861 69.577,343.862ZM69.448,353.666C65.794,353.684 62.161,355.083 59.448,357.534C54.751,361.779 53.091,369.093 55.934,375.084C58.338,380.151 63.734,383.652 69.448,383.67C73.265,383.682 77.072,382.168 79.844,379.526C83.494,376.046 85.222,370.663 84.194,365.643C83.25,361.034 79.997,356.966 75.706,355.009C73.752,354.118 71.614,353.663 69.448,353.666Z" style="fill:#0065ab;fill-rule:nonzero;"/>
            </g>
            <g transform="matrix(1.1245,0,0,1.1245,48.9195,-159.486)">
                <path d="M69.577,343.862C78.642,343.905 87.477,349.238 91.653,357.508C95.042,364.22 95.158,372.515 91.886,379.356C88.553,386.322 81.803,391.57 74.186,393.031C72.642,393.327 71.069,393.475 69.497,393.475C61.701,393.475 54.018,389.577 49.403,383.211C44.068,375.853 43.199,365.527 47.443,357.307C51.56,349.335 60.169,343.906 69.417,343.862C69.47,343.862 69.524,343.862 69.577,343.862ZM69.448,353.666C65.701,353.684 61.982,355.158 59.248,357.718C54.691,361.986 53.147,369.214 55.933,375.083C58.341,380.155 63.734,383.652 69.448,383.67C76.478,383.693 83.251,378.287 84.34,370.863C84.791,367.785 84.267,364.571 82.839,361.806C80.352,356.989 75.119,353.728 69.643,353.667C69.578,353.667 69.513,353.666 69.448,353.666Z" style="fill:#0065ab;fill-rule:nonzero;"/>
            </g>
        </g>
        <g>
            <g transform="matrix(1.07084,0,0,1.17476,-0.798562,-19.8337)">
                <path d="M283.134,65.26C293.003,65.303 302.719,69.02 309.629,75.358C316.488,81.648 320.502,90.391 320.547,99.363L320.547,157.298L320.445,158.424C320.343,158.789 320.275,159.163 320.141,159.519C318.936,162.719 314.909,164.785 311.201,163.929C308.395,163.281 306.12,161.04 305.642,158.424C305.574,158.053 305.573,157.674 305.539,157.298C305.539,137.979 305.637,118.659 305.539,99.34C305.478,92.438 301.367,85.714 294.914,82.041C291.365,80.021 287.201,78.946 283.008,78.94L217.423,78.94C217.012,78.909 216.596,78.909 216.188,78.847C212.923,78.35 210.22,75.69 209.945,72.665C209.639,69.298 212.454,65.921 216.188,65.353C216.596,65.291 217.012,65.291 217.423,65.26C239.327,65.26 261.231,65.229 283.134,65.26Z" style="fill:#60b515;fill-rule:nonzero;"/>
            </g>
            <g transform="matrix(1.07084,0,0,1.17476,-0.798562,-19.8337)">
                <path d="M316.058,201.287C317.022,201.763 317.31,201.835 318.126,202.519C319.345,203.542 320.172,204.934 320.445,206.425C320.513,206.797 320.513,207.176 320.547,207.551C320.547,229.98 320.59,252.408 320.547,274.837C320.512,281.691 318.201,288.472 313.939,294.112C307.078,303.19 295.267,308.889 283.134,308.94C219.407,309.041 155.679,309.041 91.952,308.94C82.507,308.901 73.182,305.503 66.343,299.629C58.957,293.286 54.588,284.162 54.539,274.837C54.438,216.346 54.438,157.855 54.539,99.363C54.586,90.422 58.607,81.639 65.457,75.357C72.368,69.02 82.108,65.303 91.952,65.26L152.881,65.26L154.116,65.353C154.919,65.539 155.728,65.727 156.453,66.085C159.708,67.69 161.281,71.673 159.753,74.848C158.755,76.923 156.572,78.474 154.116,78.847C153.709,78.909 153.293,78.909 152.881,78.94C132.563,78.94 112.245,78.853 91.927,78.941C84.333,78.996 76.887,82.798 72.876,88.731C70.736,91.898 69.58,95.608 69.548,99.34C69.242,157.846 69.242,216.354 69.548,274.86C69.606,281.571 73.476,288.075 79.546,291.79C83.177,294.013 87.516,295.227 91.927,295.26C155.67,295.528 219.416,295.528 283.16,295.26C290.681,295.204 298.02,291.508 302.066,285.68C304.327,282.423 305.532,278.587 305.539,274.721L305.539,207.551C305.63,206.555 305.586,206.285 305.946,205.33C306.879,202.852 309.514,200.954 312.424,200.734C313.528,200.651 313.804,200.756 314.885,200.92C315.276,201.042 315.667,201.165 316.058,201.287Z" style="fill:#0065ab;fill-rule:nonzero;"/>
            </g>
        </g>
    </g>
</svg>
